# xmcd
#
# Track frame offsets:
#	150
#	16478
#	29610
#	44000
#	61315
#	69028
#	81250
#	100406
#	112153
#	120422
#	135601
#	154220
#	167519
#
# Disc length: 2393 seconds
#
# Revision: 1
# Processed by: cddbd v1.5.2PL0 Copyright (c) Steve Scherf et al.
# Submitted via: EasyCDDAExtractor 5.0.6
#
DISCID=ae09570d
DTITLE=Love Of Diagrams - Mosaic
DYEAR=2007
DGENRE=Post-Rock
TTITLE0=Form And Function
TTITLE1=The Pyramid
TTITLE2=Pace Or The Patience
TTITLE3=At 100%
TTITLE4=Interlude
TTITLE5=Ms V. Export
TTITLE6=Confrontation
TTITLE7=Single Cable
TTITLE8=Double
TTITLE9=All The Time
TTITLE10=Trouble
TTITLE11=What Was I Supposed To Do_
TTITLE12=Hidden Track
EXTD=
EXTT0=
EXTT1=
EXTT2=
EXTT3=
EXTT4=
EXTT5=
EXTT6=
EXTT7=
EXTT8=
EXTT9=
EXTT10=
EXTT11=
EXTT12=
PLAYORDER=
